<svg width="49" height="55" viewBox="0 0 49 55" fill="none" xmlns="http://www.w3.org/2000/svg">
<path d="M24.5 55C28.3631 55 31.4967 51.9224 31.4967 48.125H17.5033C17.5033 51.9224 20.6369 55 24.5 55ZM48.0582 38.9179C45.9451 36.6878 41.9912 33.333 41.9912 22.3438C41.9912 13.9971 36.0325 7.31543 27.9978 5.67617V3.4375C27.9978 1.53936 26.4316 0 24.5 0C22.5684 0 21.0022 1.53936 21.0022 3.4375V5.67617C12.9675 7.31543 7.0088 13.9971 7.0088 22.3438C7.0088 33.333 3.05491 36.6878 0.941791 38.9179C0.285543 39.6107 -0.00539311 40.439 7.56204e-05 41.25C0.0121068 43.0117 1.41976 44.6875 3.511 44.6875H45.489C47.5802 44.6875 48.989 43.0117 48.9999 41.25C49.0054 40.439 48.7145 39.6097 48.0582 38.9179Z" fill="white"/>
</svg>
