<svg width="61" height="52" viewBox="0 0 61 52" fill="none" xmlns="http://www.w3.org/2000/svg">
<path d="M61 13V46.4286C61 49.5045 58.4385 52 55.2812 52H5.71875C2.56152 52 0 49.5045 0 46.4286V13C0 9.92411 2.56152 7.42857 5.71875 7.42857H16.2031L17.6686 3.60982C18.5025 1.43929 20.6352 0 23.018 0H37.9701C40.3529 0 42.4855 1.43929 43.3195 3.60982L44.7969 7.42857H55.2812C58.4385 7.42857 61 9.92411 61 13ZM44.7969 29.7143C44.7969 22.0304 38.3871 15.7857 30.5 15.7857C22.6129 15.7857 16.2031 22.0304 16.2031 29.7143C16.2031 37.3982 22.6129 43.6429 30.5 43.6429C38.3871 43.6429 44.7969 37.3982 44.7969 29.7143ZM40.9844 29.7143C40.9844 35.3438 36.2783 39.9286 30.5 39.9286C24.7217 39.9286 20.0156 35.3438 20.0156 29.7143C20.0156 24.0848 24.7217 19.5 30.5 19.5C36.2783 19.5 40.9844 24.0848 40.9844 29.7143Z" fill="white"/>
</svg>
