<svg width="41" height="50" viewBox="0 0 41 50" fill="none" xmlns="http://www.w3.org/2000/svg">
<path d="M39.5357 3.12502H28.5536L27.6933 1.29884C27.5111 0.908429 27.2304 0.58002 26.8827 0.350562C26.5351 0.121105 26.1344 -0.0002957 25.7257 1.71218e-05H15.2652C14.8574 -0.00165578 14.4573 0.119292 14.111 0.349005C13.7646 0.578717 13.4858 0.907902 13.3067 1.29884L12.4464 3.12502H1.46429C1.07593 3.12502 0.703486 3.28964 0.428879 3.58266C0.154273 3.87569 0 4.27311 0 4.68752L0 7.81251C0 8.22691 0.154273 8.62434 0.428879 8.91737C0.703486 9.21039 1.07593 9.37501 1.46429 9.37501H39.5357C39.9241 9.37501 40.2965 9.21039 40.5711 8.91737C40.8457 8.62434 41 8.22691 41 7.81251V4.68752C41 4.27311 40.8457 3.87569 40.5711 3.58266C40.2965 3.28964 39.9241 3.12502 39.5357 3.12502ZM4.86875 45.6055C4.93859 46.7955 5.43082 47.9124 6.24523 48.7289C7.05964 49.5453 8.13502 49.9998 9.25246 50H31.7475C32.865 49.9998 33.9404 49.5453 34.7548 48.7289C35.5692 47.9124 36.0614 46.7955 36.1312 45.6055L38.0714 12.5H2.92857L4.86875 45.6055Z" fill="#DD1D1D"/>
</svg>
