<svg width="56" height="61" viewBox="0 0 56 61" fill="none" xmlns="http://www.w3.org/2000/svg">
<path d="M27.9583 34.3125C36.6407 34.3125 43.6849 26.6279 43.6849 17.1562C43.6849 7.68457 36.6407 0 27.9583 0C19.276 0 12.2318 7.68457 12.2318 17.1562C12.2318 26.6279 19.276 34.3125 27.9583 34.3125ZM41.9375 38.125H35.9199C33.4954 39.3402 30.7979 40.0312 27.9583 40.0312C25.1188 40.0312 22.4322 39.3402 19.9968 38.125H13.9792C6.25786 38.125 0 44.9518 0 53.375V55.2812C0 58.4385 2.34806 61 5.24219 61H50.6745C53.5686 61 55.9167 58.4385 55.9167 55.2812V53.375C55.9167 44.9518 49.6588 38.125 41.9375 38.125Z" fill="#2FDF84"/>
</svg>
