<svg width="64" height="50" viewBox="0 0 64 50" fill="none" xmlns="http://www.w3.org/2000/svg">
<path d="M63.1142 27.2118L41.7799 49.0832C39.875 51.036 36.5732 49.669 36.5732 46.87V34.3721H19.3025C17.6136 34.3721 16.2548 32.9791 16.2548 31.2476V18.7497C16.2548 17.0182 17.6136 15.6252 19.3025 15.6252H36.5732V3.12725C36.5732 0.341254 39.8623 -1.03872 41.7799 0.914076L63.1142 22.7854C64.2952 24.0092 64.2952 25.988 63.1142 27.2118ZM24.3822 48.4322V43.2248C24.3822 42.3655 23.6964 41.6625 22.8583 41.6625H12.1911C9.94335 41.6625 8.12739 39.8008 8.12739 37.4965V12.5007C8.12739 10.1964 9.94335 8.33472 12.1911 8.33472H22.8583C23.6964 8.33472 24.3822 7.63171 24.3822 6.77248V1.56501C24.3822 0.705777 23.6964 0.00276889 22.8583 0.00276889H12.1911C5.46059 0.00276889 0 5.6008 0 12.5007V37.4965C0 44.3964 5.46059 49.9945 12.1911 49.9945H22.8583C23.6964 49.9945 24.3822 49.2915 24.3822 48.4322Z" fill="white"/>
</svg>
