<svg width="50" height="50" viewBox="0 0 50 50" fill="none" xmlns="http://www.w3.org/2000/svg">
<path d="M47.9167 0H7.63889C6.48828 0 5.55556 1.39909 5.55556 3.125V4.16667H2.08333C0.932726 4.16667 0 5.56575 0 7.29167V42.7083C0 46.7354 2.17639 50 4.86111 50H45.8333C48.1345 50 50 47.2018 50 43.75V3.125C50 1.39909 49.0673 0 47.9167 0ZM4.86111 43.75C4.67693 43.75 4.5003 43.6403 4.37006 43.4449C4.23983 43.2495 4.16667 42.9846 4.16667 42.7083V10.4167H5.55556V42.7083C5.55556 42.9846 5.48239 43.2495 5.35216 43.4449C5.22192 43.6403 5.04529 43.75 4.86111 43.75ZM25.3472 41.6667H12.1528C11.5775 41.6667 11.1111 40.9671 11.1111 40.1042V39.0625C11.1111 38.1996 11.5775 37.5 12.1528 37.5H25.3472C25.9225 37.5 26.3889 38.1996 26.3889 39.0625V40.1042C26.3889 40.9671 25.9225 41.6667 25.3472 41.6667ZM43.4028 41.6667H30.2083C29.6331 41.6667 29.1667 40.9671 29.1667 40.1042V39.0625C29.1667 38.1996 29.6331 37.5 30.2083 37.5H43.4028C43.978 37.5 44.4444 38.1996 44.4444 39.0625V40.1042C44.4444 40.9671 43.978 41.6667 43.4028 41.6667ZM25.3472 29.1667H12.1528C11.5775 29.1667 11.1111 28.4671 11.1111 27.6042V26.5625C11.1111 25.6996 11.5775 25 12.1528 25H25.3472C25.9225 25 26.3889 25.6996 26.3889 26.5625V27.6042C26.3889 28.4671 25.9225 29.1667 25.3472 29.1667ZM43.4028 29.1667H30.2083C29.6331 29.1667 29.1667 28.4671 29.1667 27.6042V26.5625C29.1667 25.6996 29.6331 25 30.2083 25H43.4028C43.978 25 44.4444 25.6996 44.4444 26.5625V27.6042C44.4444 28.4671 43.978 29.1667 43.4028 29.1667ZM43.4028 16.6667H12.1528C11.5775 16.6667 11.1111 15.9671 11.1111 15.1042V9.89583C11.1111 9.03294 11.5775 8.33333 12.1528 8.33333H43.4028C43.978 8.33333 44.4444 9.03294 44.4444 9.89583V15.1042C44.4444 15.9671 43.978 16.6667 43.4028 16.6667Z" fill="white"/>
</svg>
