<svg width="60" height="62" viewBox="0 0 60 62" fill="none" xmlns="http://www.w3.org/2000/svg">
<path d="M57.5 7.75H46.6667V2.90625C46.6667 1.2957 45.5521 0 44.1667 0H15.8333C14.4479 0 13.3333 1.2957 13.3333 2.90625V7.75H2.5C1.11458 7.75 0 9.0457 0 10.6562V17.4375C0 21.7605 2.34375 26.2047 6.44792 29.6316C9.72917 32.3805 13.7187 34.1242 17.9062 34.6812C21.1771 40.9902 25 43.5938 25 43.5938V52.3125H20C16.3229 52.3125 13.3333 54.8191 13.3333 59.0938V60.5469C13.3333 61.3461 13.8958 62 14.5833 62H45.4167C46.1042 62 46.6667 61.3461 46.6667 60.5469V59.0938C46.6667 54.8191 43.6771 52.3125 40 52.3125H35V43.5938C35 43.5938 38.8229 40.9902 42.0937 34.6812C46.2917 34.1242 50.2812 32.3805 53.5521 29.6316C57.6458 26.2047 60 21.7605 60 17.4375V10.6562C60 9.0457 58.8854 7.75 57.5 7.75ZM10.3438 23.3469C7.80208 21.2156 6.66667 18.8422 6.66667 17.4375V15.5H13.3542C13.4583 19.4477 13.9583 22.9109 14.6875 25.9383C13.1146 25.3086 11.6458 24.4367 10.3438 23.3469V23.3469ZM53.3333 17.4375C53.3333 19.3871 51.4896 21.809 49.6563 23.3469C48.3542 24.4367 46.875 25.3086 45.3021 25.9383C46.0312 22.9109 46.5313 19.4477 46.6354 15.5H53.3333V17.4375Z" fill="white"/>
</svg>
