<svg xmlns="http://www.w3.org/2000/svg" viewBox="0 0 36 36" width="36" height="36">
	<style>
		tspan { white-space:pre }
		.shp0 { fill: #efefef } 
		.shp1 { fill: #f3f3f1 } 
		.shp2 { fill: #2fdf84 } 
		.shp3 { fill: #00b871 } 
		.shp4 { fill: #d5dbe1 } 
		.shp5 { fill: #000000 } 
	</style>
	<path id="Layer" class="shp0" d="M4.17 27.62C4.17 20.71 0.58 15.96 0.58 12.62C0.58 9.29 2.5 2.29 17.83 2.29C33.17 2.29 35.42 11.71 35.42 15.37C35.42 32.54 4.17 39.87 4.17 27.62L4.17 27.62Z" />
	<path id="Layer" class="shp1" d="M6.75 6.75L14.25 6.75L14.25 14.25L6.75 14.25L6.75 6.75Z" />
	<path id="Layer" class="shp2" d="M20.75 18L25 13.75L29.24 18L25 22.25L20.75 18Z" />
	<path id="Layer" class="shp1" d="M10.5 29.25C8.43 29.25 6.75 27.57 6.75 25.5C6.75 23.43 8.43 21.75 10.5 21.75C12.57 21.75 14.25 23.43 14.25 25.5C14.25 27.57 12.57 29.25 10.5 29.25Z" />
	<path id="Layer" class="shp3" d="M23 18L26.13 14.88L25 13.75L20.75 18L25 22.25L26.13 21.13L23 18Z" />
	<path id="Layer" class="shp4" d="M6.75 6.75L9 6.75L9 14.25L6.75 14.25L6.75 6.75Z" />
	<path id="Layer" class="shp4" d="M9 25.5C9 23.82 10.11 22.42 11.63 21.94C11.27 21.83 10.89 21.75 10.5 21.75C8.43 21.75 6.75 23.43 6.75 25.5C6.75 27.57 8.43 29.25 10.5 29.25C10.89 29.25 11.27 29.17 11.63 29.06C10.11 28.58 9 27.18 9 25.5Z" />
	<path id="Layer" fill-rule="evenodd" class="shp5" d="M14.25 15L6.75 15C6.34 15 6 14.66 6 14.25L6 6.75C6 6.34 6.34 6 6.75 6L14.25 6C14.66 6 15 6.34 15 6.75L15 14.25C15 14.66 14.66 15 14.25 15ZM7.5 13.5L13.5 13.5L13.5 7.5L7.5 7.5L7.5 13.5Z" />
	<path id="Layer" fill-rule="evenodd" class="shp5" d="M25 23C24.81 23 24.62 22.93 24.47 22.78L20.22 18.53C19.93 18.24 19.93 17.76 20.22 17.47L24.47 13.22C24.76 12.93 25.24 12.93 25.53 13.22L29.78 17.47C30.07 17.76 30.07 18.24 29.78 18.53L25.53 22.78C25.38 22.93 25.19 23 25 23ZM21.81 18L25 21.19L28.19 18L25 14.81L21.81 18Z" />
	<path id="Layer" fill-rule="evenodd" class="shp5" d="M10.5 30C8.02 30 6 27.98 6 25.5C6 23.02 8.02 21 10.5 21C12.98 21 15 23.02 15 25.5C15 27.98 12.98 30 10.5 30ZM10.5 22.5C8.85 22.5 7.5 23.85 7.5 25.5C7.5 27.15 8.85 28.5 10.5 28.5C12.15 28.5 13.5 27.15 13.5 25.5C13.5 23.85 12.15 22.5 10.5 22.5Z" />
	<path id="Layer" class="shp5" d="M25.75 13.5L24.25 13.5L24.25 11.25L14.5 11.25L14.5 9.75L25 9.75C25.41 9.75 25.75 10.09 25.75 10.5L25.75 13.5Z" />
	<path id="Layer" class="shp5" d="M25 26.25L14.5 26.25L14.5 24.75L24.25 24.75L24.25 22.5L25.75 22.5L25.75 25.5C25.75 25.91 25.41 26.25 25 26.25Z" />
</svg>